C:\Users\Nicos\Documents\OpenSimProjects\SprintingProject\Study1\PredictiveResults\IC_pred_Sprinting_optimum_26-October-2023__20-13-02_p02_maxVel_01___IKTD_Plus_6_GRF.mot
version=1
nRows=5
nColumns=127
inDegrees=yes
endheader
time	ground_force_vx	ground_force_vy	ground_force_vz	ground_force_px	ground_force_py	ground_force_pz	ground_torque_x	ground_torque_y	ground_torque_z	1_ground_force_vx	1_ground_force_vy	1_ground_force_vz	1_ground_force_px	1_ground_force_py	1_ground_force_pz	1_ground_torque_x	1_ground_torque_y	1_ground_torque_z	2_ground_force_vx	2_ground_force_vy	2_ground_force_vz	2_ground_force_px	2_ground_force_py	2_ground_force_pz	2_ground_torque_x	2_ground_torque_y	2_ground_torque_z	3_ground_force_vx	3_ground_force_vy	3_ground_force_vz	3_ground_force_px	3_ground_force_py	3_ground_force_pz	3_ground_torque_x	3_ground_torque_y	3_ground_torque_z	4_ground_force_vx	4_ground_force_vy	4_ground_force_vz	4_ground_force_px	4_ground_force_py	4_ground_force_pz	4_ground_torque_x	4_ground_torque_y	4_ground_torque_z	5_ground_force_vx	5_ground_force_vy	5_ground_force_vz	5_ground_force_px	5_ground_force_py	5_ground_force_pz	5_ground_torque_x	5_ground_torque_y	5_ground_torque_z	6_ground_force_vx	6_ground_force_vy	6_ground_force_vz	6_ground_force_px	6_ground_force_py	6_ground_force_pz	6_ground_torque_x	6_ground_torque_y	6_ground_torque_z	7_ground_force_vx	7_ground_force_vy	7_ground_force_vz	7_ground_force_px	7_ground_force_py	7_ground_force_pz	7_ground_torque_x	7_ground_torque_y	7_ground_torque_z	8_ground_force_vx	8_ground_force_vy	8_ground_force_vz	8_ground_force_px	8_ground_force_py	8_ground_force_pz	8_ground_torque_x	8_ground_torque_y	8_ground_torque_z	9_ground_force_vx	9_ground_force_vy	9_ground_force_vz	9_ground_force_px	9_ground_force_py	9_ground_force_pz	9_ground_torque_x	9_ground_torque_y	9_ground_torque_z	10_ground_force_vx	10_ground_force_vy	10_ground_force_vz	10_ground_force_px	10_ground_force_py	10_ground_force_pz	10_ground_torque_x	10_ground_torque_y	10_ground_torque_z	11_ground_force_vx	11_ground_force_vy	11_ground_force_vz	11_ground_force_px	11_ground_force_py	11_ground_force_pz	11_ground_torque_x	11_ground_torque_y	11_ground_torque_z	12_ground_force_vx	12_ground_force_vy	12_ground_force_vz	12_ground_force_px	12_ground_force_py	12_ground_force_pz	12_ground_torque_x	12_ground_torque_y	12_ground_torque_z	13_ground_force_vx	13_ground_force_vy	13_ground_force_vz	13_ground_force_px	13_ground_force_py	13_ground_force_pz	13_ground_torque_x	13_ground_torque_y	13_ground_torque_z
0.213226	-0.000000	0.000000	-0.000000	1.070697	0.228276	0.370788	0.000000	0.000000	0.000000	-0.000000	0.000000	-0.000000	1.095138	0.246837	0.392964	0.000000	0.000000	0.000000	-0.000000	0.000000	-0.000000	1.113181	0.255595	0.391466	0.000000	0.000000	0.000000	-0.000000	0.000000	-0.000000	1.111164	0.254166	0.369010	0.000000	0.000000	0.000000	-0.000000	0.000000	-0.000000	1.155535	0.292988	0.423684	0.000000	0.000000	0.000000	-0.000000	0.000000	-0.000000	1.127567	0.268556	0.386873	0.000000	0.000000	0.000000	-0.000000	0.000000	-0.000000	1.185107	0.320402	0.368506	0.000000	0.000000	0.000000	-0.000000	0.000000	0.000000	2.415952	0.078123	0.172910	0.000000	0.000000	0.000000	-0.000000	0.000000	0.000000	2.373681	0.083711	0.149341	0.000000	0.000000	0.000000	-0.000000	0.000000	0.000000	2.342014	0.083365	0.154954	0.000000	0.000000	0.000000	-0.000000	0.000000	0.000000	2.343453	0.078590	0.175527	0.000000	0.000000	0.000000	-0.000000	0.000000	0.000000	2.259495	0.094116	0.120996	0.000000	0.000000	0.000000	-0.000000	0.000000	0.000000	2.312138	0.083851	0.157496	0.000000	0.000000	0.000000	-0.000000	0.000000	0.000000	2.192632	0.085797	0.167661	0.000000	0.000000	0.000000
0.214709	-0.000000	0.000000	-0.000000	1.091614	0.230830	0.370815	0.000000	0.000000	0.000000	-0.000000	0.000000	-0.000000	1.116202	0.249366	0.392913	0.000000	0.000000	0.000000	-0.000000	0.000000	-0.000000	1.134305	0.258072	0.391409	0.000000	0.000000	0.000000	-0.000000	0.000000	-0.000000	1.132265	0.256626	0.368960	0.000000	0.000000	0.000000	-0.000000	0.000000	-0.000000	1.176905	0.295429	0.423467	0.000000	0.000000	0.000000	-0.000000	0.000000	-0.000000	1.148766	0.271007	0.386762	0.000000	0.000000	0.000000	-0.000000	0.000000	-0.000000	1.206610	0.322748	0.368172	0.000000	0.000000	0.000000	-0.000000	0.000000	0.000000	2.433919	0.076799	0.172296	0.000000	0.000000	0.000000	-0.000000	0.000000	0.000000	2.391627	0.082494	0.148868	0.000000	0.000000	0.000000	-0.000000	0.000000	0.000000	2.360134	0.082194	0.154414	0.000000	0.000000	0.000000	-0.000000	0.000000	0.000000	2.361585	0.077318	0.174890	0.000000	0.000000	0.000000	-0.000000	0.000000	0.000000	2.277578	0.092982	0.120594	0.000000	0.000000	0.000000	-0.000000	0.000000	0.000000	2.330252	0.082619	0.156936	0.000000	0.000000	0.000000	-0.000000	0.000000	0.000000	2.210726	0.084320	0.167025	0.000000	0.000000	0.000000
0.215357	-0.000000	0.000000	-0.000000	1.100808	0.231918	0.370842	0.000000	0.000000	0.000000	-0.000000	0.000000	-0.000000	1.125457	0.250445	0.392903	0.000000	0.000000	0.000000	-0.000000	0.000000	-0.000000	1.143583	0.259129	0.391394	0.000000	0.000000	0.000000	-0.000000	0.000000	-0.000000	1.141533	0.257675	0.368948	0.000000	0.000000	0.000000	-0.000000	0.000000	-0.000000	1.186286	0.296473	0.423379	0.000000	0.000000	0.000000	-0.000000	0.000000	-0.000000	1.158075	0.272054	0.386722	0.000000	0.000000	0.000000	-0.000000	0.000000	-0.000000	1.216040	0.323751	0.368031	0.000000	0.000000	0.000000	-0.000000	0.000000	0.000000	2.441627	0.076215	0.172022	0.000000	0.000000	0.000000	-0.000000	0.000000	0.000000	2.399327	0.081958	0.148655	0.000000	0.000000	0.000000	-0.000000	0.000000	0.000000	2.367904	0.081674	0.154174	0.000000	0.000000	0.000000	-0.000000	0.000000	0.000000	2.369360	0.076754	0.174607	0.000000	0.000000	0.000000	-0.000000	0.000000	0.000000	2.285333	0.092484	0.120419	0.000000	0.000000	0.000000	-0.000000	0.000000	0.000000	2.338020	0.082074	0.156688	0.000000	0.000000	0.000000	-0.000000	0.000000	0.000000	2.218485	0.083674	0.166744	0.000000	0.000000	0.000000
0.217403	-0.000000	0.000000	-0.000000	1.130093	0.235244	0.370977	0.000000	0.000000	0.000000	-0.000000	0.000000	-0.000000	1.154921	0.253748	0.392917	0.000000	0.000000	0.000000	-0.000000	0.000000	-0.000000	1.173112	0.262372	0.391383	0.000000	0.000000	0.000000	-0.000000	0.000000	-0.000000	1.171024	0.260893	0.368947	0.000000	0.000000	0.000000	-0.000000	0.000000	-0.000000	1.216113	0.299682	0.423125	0.000000	0.000000	0.000000	-0.000000	0.000000	-0.000000	1.187687	0.275265	0.386627	0.000000	0.000000	0.000000	-0.000000	0.000000	-0.000000	1.245987	0.326838	0.367602	0.000000	0.000000	0.000000	-0.000000	0.000000	0.000000	2.465442	0.074340	0.171144	0.000000	0.000000	0.000000	-0.000000	0.000000	0.000000	2.423120	0.080236	0.147968	0.000000	0.000000	0.000000	-0.000000	0.000000	0.000000	2.391888	0.079992	0.153411	0.000000	0.000000	0.000000	-0.000000	0.000000	0.000000	2.393356	0.074927	0.173701	0.000000	0.000000	0.000000	-0.000000	0.000000	0.000000	2.309277	0.090895	0.119872	0.000000	0.000000	0.000000	-0.000000	0.000000	0.000000	2.361998	0.080320	0.155900	0.000000	0.000000	0.000000	-0.000000	0.000000	0.000000	2.242441	0.081629	0.165856	0.000000	0.000000	0.000000
0.218886	-0.000000	0.000000	-0.000000	1.151539	0.237547	0.371118	0.000000	0.000000	0.000000	-0.000000	0.000000	-0.000000	1.176480	0.256040	0.392966	0.000000	0.000000	0.000000	-0.000000	0.000000	-0.000000	1.194710	0.264628	0.391405	0.000000	0.000000	0.000000	-0.000000	0.000000	-0.000000	1.192593	0.263131	0.368977	0.000000	0.000000	0.000000	-0.000000	0.000000	-0.000000	1.237899	0.301923	0.422965	0.000000	0.000000	0.000000	-0.000000	0.000000	-0.000000	1.209334	0.277502	0.386586	0.000000	0.000000	0.000000	-0.000000	0.000000	-0.000000	1.267829	0.328996	0.367311	0.000000	0.000000	0.000000	-0.000000	0.000000	0.000000	2.482198	0.072947	0.170509	0.000000	0.000000	0.000000	-0.000000	0.000000	0.000000	2.439866	0.078956	0.147469	0.000000	0.000000	0.000000	-0.000000	0.000000	0.000000	2.408740	0.078727	0.152865	0.000000	0.000000	0.000000	-0.000000	0.000000	0.000000	2.410213	0.073555	0.173047	0.000000	0.000000	0.000000	-0.000000	0.000000	0.000000	2.326109	0.089720	0.119493	0.000000	0.000000	0.000000	-0.000000	0.000000	0.000000	2.378847	0.079009	0.155337	0.000000	0.000000	0.000000	-0.000000	0.000000	0.000000	2.259276	0.080138	0.165224	0.000000	0.000000	0.000000
